# xmcd
#
# Track frame offsets:
#	150
#	12950
#	26252
#	39888
#	50570
#	65544
#	77759
#	88051
#	103192
#	116132
#	128291
#	140478
#
# Disc length: 2012 seconds
#
# Revision: 1
# Processed by: cddbd v1.5.2PL0 Copyright (c) Steve Scherf et al.
# Submitted via: audiograbber 1.83.01
#
DISCID=9507da0c
DTITLE=Lolita - Seemann
DYEAR=1900
DGENRE=
TTITLE0=Seemann, Deine Heimat ist das Meer
TTITLE1=Über alle sieben Meere
TTITLE2=Südwind
TTITLE3=Wenn der Sommer kommt
TTITLE4=Eine Rose aus San Remo
TTITLE5=Weißer Holunder
TTITLE6=Rosen werden blüh'n
TTITLE7=Das kleine Bankerl
TTITLE8=Drei Tannen
TTITLE9=Addio Amigo
TTITLE10=Das kleine Haus von Waikiki
TTITLE11=Der weiße Mond von Maratonga
EXTD=
EXTT0=
EXTT1=
EXTT2=
EXTT3=
EXTT4=
EXTT5=
EXTT6=
EXTT7=
EXTT8=
EXTT9=
EXTT10=
EXTT11=
PLAYORDER=
